<?xml version="1.0" encoding="UTF-8"?><!DOCTYPE svg PUBLIC "-//W3C//DTD SVG 1.1//EN" "http://www.w3.org/Graphics/SVG/1.1/DTD/svg11.dtd"><svg xmlns="http://www.w3.org/2000/svg" xmlns:xlink="http://www.w3.org/1999/xlink"><symbol id="close" viewBox="0 0 329.26933 329"><path d="m194.800781 164.769531 128.210938-128.214843c8.34375-8.339844 8.34375-21.824219 0-30.164063-8.339844-8.339844-21.824219-8.339844-30.164063 0l-128.214844 128.214844-128.210937-128.214844c-8.34375-8.339844-21.824219-8.339844-30.164063 0-8.34375 8.339844-8.34375 21.824219 0 30.164063l128.210938 128.214843-128.210938 128.214844c-8.34375 8.339844-8.34375 21.824219 0 30.164063 4.15625 4.160156 9.621094 6.25 15.082032 6.25 5.460937 0 10.921875-2.089844 15.082031-6.25l128.210937-128.214844 128.214844 128.214844c4.160156 4.160156 9.621094 6.25 15.082032 6.25 5.460937 0 10.921874-2.089844 15.082031-6.25 8.34375-8.339844 8.34375-21.824219 0-30.164063zm0 0"/></symbol><symbol id="footprint" viewBox="0 0 512 512">
<style type="text/css">
	.st0{fill:#A59C87;}
</style>
<g>
	<g>
		<path class="st0" d="M481.5,412.8c-4.5-45.3-45.7-80.8-93.8-80.8c-14.2,0-25.7-11.5-25.7-25.7v-14.2c0-57.8-45.6-107.1-100.4-110
			c-29-1.2-57.8,8.7-78.9,28.7c-21.1,20-32.7,47.1-32.7,76.2v19.3c0,14.2-11.5,25.7-25.7,25.7H120c-16.1,0-31.9,4.3-45.6,12.4
			c-30.2,17.8-47.1,50.7-44,85.7c4,45.9,45.4,81.9,94.1,81.9H180c24.1,0,47.8-9.4,64.8-26.5c6.5-6.5,16-6.5,22.5,0
			c17,17.1,40.7,26.5,64.8,26.5h60c25.4,0,49.7-10.8,66.8-29.6C475.8,463.6,484.1,438.2,481.5,412.8z"/>
	</g>
</g>
<g>
	<g>
		<path class="st0" d="M452,122c-33.6,0-60,39.5-60,90s26.4,90,60,90s60-39.5,60-90S485.6,122,452,122z"/>
	</g>
</g>
<g>
	<g>
		<path class="st0" d="M332,0c-33.6,0-61,41.5-61,92s27.4,90,61,90s60-39.5,60-90S365.6,0,332,0z"/>
	</g>
</g>
<g>
	<g>
		<path class="st0" d="M180,0c-33.6,0-60,41.5-60,92s26.4,90,60,90s60-39.5,60-90S213.6,0,180,0z"/>
	</g>
</g>
<g>
	<g>
		<path class="st0" d="M60,122c-33.6,0-60,39.5-60,90s26.4,90,60,90s60-39.5,60-90S93.6,122,60,122z"/>
	</g>
</g>
</symbol><symbol id="more" viewBox="0 0 512 512"><path d="m256 0c-141.164062 0-256 114.835938-256 256s114.835938 256 256 256 256-114.835938 256-256-114.835938-256-256-256zm112 277.332031h-90.667969v90.667969c0 11.777344-9.554687 21.332031-21.332031 21.332031s-21.332031-9.554687-21.332031-21.332031v-90.667969h-90.667969c-11.777344 0-21.332031-9.554687-21.332031-21.332031s9.554687-21.332031 21.332031-21.332031h90.667969v-90.667969c0-11.777344 9.554687-21.332031 21.332031-21.332031s21.332031 9.554687 21.332031 21.332031v90.667969h90.667969c11.777344 0 21.332031 9.554687 21.332031 21.332031s-9.554687 21.332031-21.332031 21.332031zm0 0"/></symbol><symbol id="next" viewBox="0 0 492.004 492.004"><g><g>
	<g>
		<path d="M382.678,226.804L163.73,7.86C158.666,2.792,151.906,0,144.698,0s-13.968,2.792-19.032,7.86l-16.124,16.12    c-10.492,10.504-10.492,27.576,0,38.064L293.398,245.9l-184.06,184.06c-5.064,5.068-7.86,11.824-7.86,19.028    c0,7.212,2.796,13.968,7.86,19.04l16.124,16.116c5.068,5.068,11.824,7.86,19.032,7.86s13.968-2.792,19.032-7.86L382.678,265    c5.076-5.084,7.864-11.872,7.848-19.088C390.542,238.668,387.754,231.884,382.678,226.804z" data-original="#000000" class="active-path"/>
	</g>
</g></g> </symbol></svg>