<svg xmlns="http://www.w3.org/2000/svg" viewBox="0 0 512 512"><path d="M481.5 412.8c-4.5-45.3-45.7-80.8-93.8-80.8-14.2 0-25.7-11.5-25.7-25.7v-14.2c0-57.8-45.6-107.1-100.4-110-29-1.2-57.8 8.7-78.9 28.7-21.1 20-32.7 47.1-32.7 76.2v19.3c0 14.2-11.5 25.7-25.7 25.7H120c-16.1 0-31.9 4.3-45.6 12.4-30.2 17.8-47.1 50.7-44 85.7 4 45.9 45.4 81.9 94.1 81.9H180c24.1 0 47.8-9.4 64.8-26.5 6.5-6.5 16-6.5 22.5 0 17 17.1 40.7 26.5 64.8 26.5h60c25.4 0 49.7-10.8 66.8-29.6 16.9-18.8 25.2-44.2 22.6-69.6zM452 122c-33.6 0-60 39.5-60 90s26.4 90 60 90 60-39.5 60-90-26.4-90-60-90zM332 0c-33.6 0-61 41.5-61 92s27.4 90 61 90 60-39.5 60-90-26.4-92-60-92zM180 0c-33.6 0-60 41.5-60 92s26.4 90 60 90 60-39.5 60-90-26.4-92-60-92zM60 122c-33.6 0-60 39.5-60 90s26.4 90 60 90 60-39.5 60-90-26.4-90-60-90z" fill="#a59c87"/></svg>