<?xml version="1.0" encoding="utf-8"?>
<!-- Generator: Adobe Illustrator 23.0.3, SVG Export Plug-In . SVG Version: 6.00 Build 0)  -->
<svg version="1.1" id="Capa_1" xmlns="http://www.w3.org/2000/svg" xmlns:xlink="http://www.w3.org/1999/xlink" x="0px" y="0px"
	 viewBox="0 0 512 512" style="enable-background:new 0 0 512 512;" xml:space="preserve">
<style type="text/css">
	.st0{fill:#A59C87;}
</style>
<g>
	<g>
		<path class="st0" d="M481.5,412.8c-4.5-45.3-45.7-80.8-93.8-80.8c-14.2,0-25.7-11.5-25.7-25.7v-14.2c0-57.8-45.6-107.1-100.4-110
			c-29-1.2-57.8,8.7-78.9,28.7c-21.1,20-32.7,47.1-32.7,76.2v19.3c0,14.2-11.5,25.7-25.7,25.7H120c-16.1,0-31.9,4.3-45.6,12.4
			c-30.2,17.8-47.1,50.7-44,85.7c4,45.9,45.4,81.9,94.1,81.9H180c24.1,0,47.8-9.4,64.8-26.5c6.5-6.5,16-6.5,22.5,0
			c17,17.1,40.7,26.5,64.8,26.5h60c25.4,0,49.7-10.8,66.8-29.6C475.8,463.6,484.1,438.2,481.5,412.8z"/>
	</g>
</g>
<g>
	<g>
		<path class="st0" d="M452,122c-33.6,0-60,39.5-60,90s26.4,90,60,90s60-39.5,60-90S485.6,122,452,122z"/>
	</g>
</g>
<g>
	<g>
		<path class="st0" d="M332,0c-33.6,0-61,41.5-61,92s27.4,90,61,90s60-39.5,60-90S365.6,0,332,0z"/>
	</g>
</g>
<g>
	<g>
		<path class="st0" d="M180,0c-33.6,0-60,41.5-60,92s26.4,90,60,90s60-39.5,60-90S213.6,0,180,0z"/>
	</g>
</g>
<g>
	<g>
		<path class="st0" d="M60,122c-33.6,0-60,39.5-60,90s26.4,90,60,90s60-39.5,60-90S93.6,122,60,122z"/>
	</g>
</g>
</svg>
